<svg version="1.1" xmlns="http://www.w3.org/2000/svg" xmlns:xlink="http://www.w3.org/1999/xlink" x="0px" y="0px"
	 width="512px" height="512px" viewBox="0 0 512 512" enable-background="new 0 0 512 512" xml:space="preserve">
<path fill="#232323" d="m 0,203.40567 511.93386,0 0,277.30017 -511.93386,0 z M 262.63486,19.525424 c 26.68463,0 48.31697,21.633267 48.31697,48.318251 0,4.169398 -0.52813,8.215483 -1.52117,12.075001 l -0.10582,0.372754 93.10315,91.11837 -34.9364,0 -71.51769,-68.61323 -0.85184,0.81217 c -8.58046,7.79884 -19.97878,12.55221 -32.4872,12.55221 -13.34271,0 -25.42234,-5.40827 -34.1663,-14.15207 l -0.68846,-0.7221 -59.63554,57.21138 -8.16361,12.91164 -5.29511,0 -34.94131,0 95.61346,-93.568729 -0.06,-0.259992 c -0.64366,-3.145284 -0.98167,-6.401882 -0.98167,-9.737404 0,-26.684984 21.63312,-48.318251 48.31854,-48.318251 z"/>

</svg>