<svg version="1.1" xmlns="http://www.w3.org/2000/svg" xmlns:xlink="http://www.w3.org/1999/xlink" x="0px" y="0px" width="512px" height="512px" viewBox="0 0 512 512" enable-background="new 0 0 512 512" xml:space="preserve">    
    <path fill="#232323" d="M476.51829,403.5964 c -34.14316,-15.97158 -83.93948,-51.00486 -124.89969,-91.12561 47.47332,-9.45125 70.12446,-23.46166 72.61391,-24.34455 6.76639,-2.36642 11.28216,-7.62033 11.69465,-13.44594 0.4125,-5.83286 -3.31445,-11.369 -9.72625,-14.42292 -31.21225,-14.68344 -79.33688,-50.15093 -112.95898,-88.33945 39.08588,-6.62166 57.69889,-18.38144 59.55875,-19.07616 4.66772,-1.71512 7.80125,-5.4493 8.08349,-9.61046 0.2967,-4.19733 -2.28683,-8.17033 -6.70851,-10.34137 -32.65237,-15.89197 -92.23284,-65.861991 -103.03012,-105.121547 -1.41841,-5.116414 -6.99797,-8.799936 -13.44595,-8.799936 -6.45521,0 -12.03477,3.683522 -13.45318,8.799936 -10.67426,38.839825 -70.37775,89.070357 -103.07355,105.143257 -4.39997,2.18551 -6.96179,6.15127 -6.66508,10.33414 0.29671,4.16115 3.41576,7.88086 8.08349,9.59598 1.85985,0.69472 20.43669,12.41832 59.38507,19.03998 -33.61487,38.05102 -81.6599,73.61982 -112.857679,88.40458 -6.368377,3.03945 -10.066376,8.5973 -9.653876,14.41568 0.419731,5.84008 4.942723,11.05781 11.687412,13.42423 2.489447,0.88289 25.068223,14.84265 72.360623,24.29389 -40.93127,40.04114 -90.626273,75.14679 -124.726006,91.21245 -8.286128,3.95129 -13.069639,11.10123 -12.541353,18.6492 0.571704,7.54797 6.426265,14.27818 15.182774,17.35382 4.877595,1.72959 69.502095,42.48716 216.271355,42.48716 146.76202,0 211.38652,-40.75757 216.26412,-42.48716 8.75651,-3.07564 14.64002,-9.84203 15.19001,-17.35382 0.52829,-7.56968 -4.32036,-14.73409 -12.63543,-18.68538 z"/>							
</svg>
